<svg aria-hidden="true" style="position: absolute; width: 0; height: 0; overflow: hidden;" version="1.1" xmlns="http://www.w3.org/2000/svg" xmlns:xlink="http://www.w3.org/1999/xlink">
<defs>
<symbol id="icon-auth" viewBox="0 0 32 32">
<path fill="#1c274c" style="fill: var(--color1, #1c274c)" d="M5.274 3c0.020 0 0.040 0 0.060 0h21.393c0.577-0 1.106-0 1.537 0.058 0.474 0.064 0.975 0.214 1.387 0.626s0.562 0.913 0.626 1.387c0.058 0.43 0.058 0.96 0.058 1.537v0.119c0 0.577 0 1.106-0.058 1.537-0.064 0.474-0.214 0.975-0.626 1.387-0.392 0.392-0.864 0.547-1.317 0.616v7.143c0 2.45 0 4.391-0.204 5.91-0.21 1.563-0.653 2.829-1.651 3.826s-2.263 1.441-3.826 1.651c-1.519 0.204-3.46 0.204-5.91 0.204h-1.484c-2.45 0-4.391 0-5.91-0.204-1.563-0.21-2.829-0.653-3.826-1.651s-1.441-2.263-1.651-3.826c-0.204-1.519-0.204-3.46-0.204-5.91v-7.143c-0.453-0.069-0.925-0.224-1.317-0.616-0.412-0.412-0.562-0.913-0.626-1.387-0.058-0.43-0.058-0.96-0.058-1.537 0-0.020 0-0.040 0-0.060s0-0.040 0-0.060c-0-0.577-0-1.106 0.058-1.537 0.064-0.474 0.214-0.975 0.626-1.387s0.913-0.562 1.387-0.626c0.43-0.058 0.96-0.058 1.537-0.058zM5.667 10.333v7c0 2.542 0.002 4.349 0.186 5.719 0.18 1.341 0.519 2.114 1.083 2.679s1.337 0.903 2.679 1.083c1.37 0.184 3.176 0.186 5.719 0.186h1.333c2.542 0 4.349-0.002 5.719-0.186 1.341-0.18 2.114-0.519 2.679-1.083s0.903-1.337 1.083-2.679c0.184-1.37 0.186-3.177 0.186-5.719v-7h-20.667zM3.764 5.098l-0.002 0.003c-0.001 0.003-0.003 0.007-0.006 0.014-0.012 0.029-0.032 0.094-0.050 0.222-0.038 0.281-0.040 0.673-0.040 1.33s0.002 1.049 0.040 1.33c0.017 0.129 0.038 0.193 0.050 0.222 0.003 0.007 0.005 0.011 0.006 0.014l0.002 0.003 0.003 0.002c0.003 0.001 0.007 0.004 0.014 0.006 0.029 0.012 0.094 0.032 0.222 0.050 0.281 0.038 0.673 0.040 1.33 0.040h21.333c0.657 0 1.049-0.002 1.33-0.040 0.129-0.017 0.193-0.038 0.222-0.050 0.007-0.003 0.011-0.005 0.014-0.006l0.003-0.002 0.002-0.003c0.001-0.003 0.004-0.007 0.006-0.014 0.012-0.029 0.032-0.094 0.050-0.222 0.038-0.281 0.040-0.673 0.040-1.33s-0.002-1.049-0.040-1.33c-0.017-0.129-0.038-0.193-0.050-0.222-0.003-0.007-0.005-0.011-0.006-0.014l-0.002-0.003-0.003-0.002c-0.003-0.001-0.007-0.003-0.014-0.006-0.029-0.012-0.093-0.032-0.222-0.050-0.281-0.038-0.673-0.040-1.33-0.040h-21.333c-0.657 0-1.049 0.002-1.33 0.040-0.129 0.017-0.193 0.038-0.222 0.050-0.007 0.003-0.011 0.005-0.014 0.006l-0.003 0.002zM3.764 8.236c-0.001-0.001-0-0 0 0v0zM19.999 13.921c0.412 0.368 0.448 1 0.080 1.412l-4.762 5.333c-0.19 0.213-0.461 0.334-0.746 0.334s-0.556-0.121-0.746-0.334l-1.905-2.133c-0.368-0.412-0.332-1.044 0.080-1.412s1.044-0.332 1.412 0.080l1.159 1.298 4.016-4.498c0.368-0.412 1-0.448 1.412-0.080z"></path>
</symbol>
</defs>
</svg>
